
        <svg xmlns="http://www.w3.org/2000/svg" xmlns:xlink="http://www.w3.org/1999/xlink" version="1.1" width="3240" height="2547.3229273903394" viewBox="0 0 3240 2547.3229273903394">
			
			<g transform="scale(12) translate(10, 10)">
				<defs id="SvgjsDefs1118"><linearGradient id="SvgjsLinearGradient1125"><stop id="SvgjsStop1126" stop-color="#b98947" offset="0"/><stop id="SvgjsStop1127" stop-color="#faf0a1" offset="1"/></linearGradient><linearGradient id="SvgjsLinearGradient1128"><stop id="SvgjsStop1129" stop-color="#b98947" offset="0"/><stop id="SvgjsStop1130" stop-color="#faf0a1" offset="1"/></linearGradient><linearGradient id="SvgjsLinearGradient1131"><stop id="SvgjsStop1132" stop-color="#b98947" offset="0"/><stop id="SvgjsStop1133" stop-color="#faf0a1" offset="1"/></linearGradient></defs><g id="SvgjsG1119" featureKey="rZF8Vg-0" transform="matrix(1.3368983411779418,0,0,1.3368983411779418,75,0)" fill="#000"><path xmlns="http://www.w3.org/2000/svg" d="M37.4,0C16.8,0,0,17.9,0,40c0,22.1,16.8,40,37.4,40c20.7,0,37.4-17.9,37.4-40C74.8,17.9,58.1,0,37.4,0z M37,79  c-14.8,0-26.8-16.8-26.8-37.6S22.2,3.8,37,3.8c14.8,0,26.8,16.8,26.8,37.6S51.8,79,37,79z"/><polygon xmlns="http://www.w3.org/2000/svg" points="54.7,33 54.7,37.2 20.6,36.8 20.6,33 17.5,33 17.5,48.3 20.1,48.3 20.1,44.9 54.9,45.2 54.9,48.3 57.6,48.3   57.6,33 "/></g><g id="SvgjsG1120" featureKey="6VBqdG-0" transform="matrix(3.3235840992141785,0,0,3.3235840992141785,-1.9941501425668278,110.98032565606503)" fill="#000"><path d="M13.3 7.279999999999999 l-5.26 0 l0 12.72 l-2.12 0 l0 -12.72 l-5.32 0 l0 -2.2 l12.7 0 l0 2.2 z M18.26 13.4 l0 6.6 l-2.16 0 l0 -14.92 l2.16 0 l0 6.12 q0.8 -0.4 1.9 -0.4 q0.4 0 1.94 0.18 q2.16 0.26 2.92 0.26 q1.16 0 2.02 -0.38 l0 -5.78 l2.18 0 l0 14.92 l-2.18 0 l0 -6.94 q-0.86 0.38 -2.02 0.38 q-0.76 0 -2.92 -0.26 q-1.54 -0.18 -1.94 -0.18 q-1.1 0 -1.9 0.4 z M35.800000000000004 14.02 l0 3.8 l9.2 0 l0 2.18 l-11.38 0 l0 -14.92 l10.5 0 l0 2.2 l-8.32 0 l0 4.52 q0.62 -0.36 1.38 -0.48 q0.56 -0.1 1.44 -0.1 l3.26 0 l0 2.22 l-3.26 0 q-0.82 0 -1.44 0.1 q-0.76 0.14 -1.38 0.48 z M59.60000000000001 7.279999999999999 l-5.26 0 l0 12.72 l-2.12 0 l0 -12.72 l-5.32 0 l0 -2.2 l12.7 0 l0 2.2 z M67.06 6.66 l-0.82 -1.84 l2.4 0 l7.18 15.18 l-2.44 0 l-0.98 -2.18 l-4.54 0 q-1.28 0 -2.3 0.24 q-0.9 0.22 -1.5 0.58 q-0.54 0.32 -0.72 0.66 l-0.38 0.7 l-2.36 0 z M68.66 15.620000000000001 l2.76 0 l-3.26 -6.3 l-3.3 7.14 q0.44 -0.38 1.34 -0.6 q1.02 -0.24 2.46 -0.24 z"/></g><g id="SvgjsG1121" featureKey="rMoqOW-0" transform="matrix(0.36292370218061015,0,0,0.36292370218061015,24.56449162660547,184.90955973848406)" fill="#000"><path d="M10.28 20 l-4.6 -6.1 l-1.78 2 l0 4.1 l-2.7 0 l0 -14 l2.7 0 l0 6.4 l5.56 -6.4 l3.24 0 l-5.38 6.06 l6 7.94 l-3.04 0 z M38.16 6 l2.62 0 l0 14 l-2 0 l-7.3 -9.22 l0 9.22 l-2.62 0 l0 -14 l2.02 0 l7.28 9.24 l0 -9.24 z M65.4 6 l0 9.28 c0 3.66 -2.74 4.96 -4.8 4.96 c-2.04 0 -3.36 -0.82 -4.18 -1.92 l1.58 -1.92 c0.52 0.66 1.38 1.32 2.48 1.32 c0.92 0 2.3 -0.44 2.3 -2.78 l0 -8.94 l2.62 0 z M84.25999999999999 6 l0 14 l-2.62 0 l0 -14 l2.62 0 z M113.7 12.64 c0.54 4.66 -2.52 7.56 -6.26 7.56 c-3.92 0 -7.24 -2.96 -7.24 -7.2 s3.4 -7.2 7.24 -7.2 c1.82 0 3.46 0.6 4.68 1.66 l-1.58 1.8 c-0.8 -0.6 -1.86 -1 -2.94 -1 c-2.62 0 -4.68 1.98 -4.68 4.74 s2 4.74 4.52 4.74 c2 0 3.42 -0.8 3.84 -2.86 l-3.48 0 l0 -2.24 l5.9 0 z M136.62 5.800000000000001 c3.84 0 7.24 2.96 7.24 7.2 s-3.4 7.2 -7.24 7.2 s-7.24 -2.96 -7.24 -7.2 s3.4 -7.2 7.24 -7.2 z M136.62 17.740000000000002 c2.44 0 4.5 -1.98 4.5 -4.74 s-2.06 -4.74 -4.5 -4.74 c-2.46 0 -4.52 1.98 -4.52 4.74 s2.06 4.74 4.52 4.74 z M171.01999999999998 6 l2.78 0 l-6.22 14 l-2.34 0 l-6.24 -14 l2.78 0 l4.62 10.76 z M196.18 5.800000000000001 c3.84 0 7.24 2.96 7.24 7.2 s-3.4 7.2 -7.24 7.2 s-7.24 -2.96 -7.24 -7.2 s3.4 -7.2 7.24 -7.2 z M196.18 17.740000000000002 c2.44 0 4.5 -1.98 4.5 -4.74 s-2.06 -4.74 -4.5 -4.74 c-2.46 0 -4.52 1.98 -4.52 4.74 s2.06 4.74 4.52 4.74 z M224.16 6 c4 0 7.08 3.1 7.08 6.94 c0 3.96 -3.08 7.06 -7.08 7.06 l-4.8 0 l0 -14 l4.8 0 z M224.14 17.52 c2.84 0 4.44 -2.06 4.44 -4.58 c0 -2.4 -1.6 -4.46 -4.44 -4.46 l-2.16 0 l0 9.04 l2.16 0 z M251.6 5.76 c2.38 0 3.96 1.52 4.66 2.9 l-1.94 1.14 c-0.74 -1.1 -1.54 -1.72 -2.72 -1.72 c-1.12 0 -1.92 0.66 -1.92 1.56 c0 0.86 0.52 1.36 1.72 1.8 l0.96 0.36 c2.98 1.06 4.28 2.36 4.28 4.36 c0 2.72 -2.58 4.14 -4.96 4.14 c-2.5 0 -4.46 -1.48 -5.1 -3.44 l2.02 -1.06 c0.5 1.12 1.44 2.12 3.08 2.12 c1.24 0 2.24 -0.6 2.24 -1.72 c0 -1.14 -0.72 -1.64 -2.28 -2.22 l-0.9 -0.32 c-2.08 -0.76 -3.66 -1.8 -3.66 -4.12 c0 -2.2 2.02 -3.78 4.52 -3.78 z M281.18 6 l0 2.42 l-3.6 0 l0 11.58 l-2.62 0 l0 -11.58 l-3.58 0 l0 -2.42 l9.8 0 z M308.24 6 l2.78 0 l-6.22 14 l-2.34 0 l-6.24 -14 l2.78 0 l4.62 10.76 z M329.08 17.58 l6.1 0 l0 2.42 l-6.5 0 l-2.22 0 l0 -14 l2.62 0 l5.92 0 l0 2.42 l-5.92 0 l0 3.36 l4.5 0 l0 2.36 l-4.5 0 l0 3.44 z M360.42 6 l2.62 0 l0 14 l-2 0 l-7.3 -9.22 l0 9.22 l-2.62 0 l0 -14 l2.02 0 l7.28 9.24 l0 -9.24 z M381.90000000000003 6 l0 14 l-2.62 0 l0 -14 l2.62 0 z M422.50000000000006 5.76 c2.38 0 3.96 1.52 4.66 2.9 l-1.94 1.14 c-0.74 -1.1 -1.54 -1.72 -2.72 -1.72 c-1.12 0 -1.92 0.66 -1.92 1.56 c0 0.86 0.52 1.36 1.72 1.8 l0.96 0.36 c2.98 1.06 4.28 2.36 4.28 4.36 c0 2.72 -2.58 4.14 -4.96 4.14 c-2.5 0 -4.46 -1.48 -5.1 -3.44 l2.02 -1.06 c0.5 1.12 1.44 2.12 3.08 2.12 c1.24 0 2.24 -0.6 2.24 -1.72 c0 -1.14 -0.72 -1.64 -2.28 -2.22 l-0.9 -0.32 c-2.08 -0.76 -3.66 -1.8 -3.66 -4.12 c0 -2.2 2.02 -3.78 4.52 -3.78 z M445.90000000000003 17.58 l6.1 0 l0 2.42 l-6.5 0 l-2.22 0 l0 -14 l2.62 0 l5.92 0 l0 2.42 l-5.92 0 l0 3.36 l4.5 0 l0 2.36 l-4.5 0 l0 3.44 z M478.7800000000001 20 l-2.78 0 l-3.12 -4.76 l-0.12 0 l-2.2 0 l0 4.76 l-2.62 0 l0 -14 l4.82 0 c3.14 0 5.12 1.92 5.12 4.7 c0 1.94 -0.96 3.38 -2.6 4.08 z M470.56000000000006 8.42 l0 4.56 l2.06 0 c1.58 0 2.64 -0.68 2.64 -2.28 c0 -1.58 -1.06 -2.28 -2.64 -2.28 l-2.06 0 z M505.6400000000001 6 l2.78 0 l-6.22 14 l-2.34 0 l-6.24 -14 l2.78 0 l4.62 10.76 z M526.4800000000001 6 l0 14 l-2.62 0 l0 -14 l2.62 0 z M547.2400000000001 5.76 c2.38 0 3.96 1.52 4.66 2.9 l-1.94 1.14 c-0.74 -1.1 -1.54 -1.72 -2.72 -1.72 c-1.12 0 -1.92 0.66 -1.92 1.56 c0 0.86 0.52 1.36 1.72 1.8 l0.96 0.36 c2.98 1.06 4.28 2.36 4.28 4.36 c0 2.72 -2.58 4.14 -4.96 4.14 c-2.5 0 -4.46 -1.48 -5.1 -3.44 l2.02 -1.06 c0.5 1.12 1.44 2.12 3.08 2.12 c1.24 0 2.24 -0.6 2.24 -1.72 c0 -1.14 -0.72 -1.64 -2.28 -2.22 l-0.9 -0.32 c-2.08 -0.76 -3.66 -1.8 -3.66 -4.12 c0 -2.2 2.02 -3.78 4.52 -3.78 z"/></g>
			</g>
		</svg>
	